<?xml version="1.0" standalone="no"?>
<!DOCTYPE svg PUBLIC "-//W3C//DTD SVG 20010904//EN"
 "http://www.w3.org/TR/2001/REC-SVG-20010904/DTD/svg10.dtd">
<svg version="1.0" xmlns="http://www.w3.org/2000/svg"
 width="300.000000pt" height="300.000000pt" viewBox="0 0 300.000000 300.000000"
 preserveAspectRatio="xMidYMid meet">
<metadata>
Created by potrace 1.10, written by Peter Selinger 2001-2011
</metadata>
<g transform="translate(0.000000,300.000000) scale(0.100000,-0.100000)"
fill="#000000" stroke="none">
<path d="M1475 1790 c-3 -5 -14 -10 -24 -10 -10 0 -27 -10 -39 -23 -17 -18
-20 -30 -15 -60 9 -56 44 -80 110 -75 63 5 88 25 96 75 7 43 -2 57 -57 84 -45
21 -62 24 -71 9z m41 -35 c7 -27 23 -32 42 -13 18 18 22 6 14 -43 l-8 -44 -64
0 -64 0 -8 44 c-8 49 -4 61 14 43 19 -19 35 -14 42 13 4 14 11 25 16 25 5 0
12 -11 16 -25z"/>
<path d="M1486 1724 c-4 -11 -13 -13 -27 -9 -18 6 -21 4 -16 -10 4 -9 7 -21 7
-26 0 -5 23 -9 50 -9 28 0 50 4 50 9 0 5 3 17 7 26 5 14 2 16 -16 10 -14 -4
-23 -2 -27 9 -3 9 -10 16 -14 16 -4 0 -11 -7 -14 -16z"/>
<path d="M496 1714 c-20 -20 -20 -28 0 -45 24 -20 842 -14 863 6 13 13 12 17
-4 35 -18 19 -29 20 -431 20 -362 0 -415 -2 -428 -16z m854 -24 c0 -7 -148
-10 -425 -10 -277 0 -425 3 -425 10 0 7 148 10 425 10 277 0 425 -3 425 -10z"/>
<path d="M1645 1710 c-15 -16 -15 -22 -5 -35 11 -13 69 -15 434 -15 415 0 446
2 446 31 0 4 -7 15 -16 23 -13 14 -66 16 -428 16 -399 0 -414 -1 -431 -20z
m855 -20 c0 -7 -148 -10 -425 -10 -277 0 -425 3 -425 10 0 7 148 10 425 10
277 0 425 -3 425 -10z"/>
<path d="M490 1563 c-14 -19 -19 -34 -14 -48 4 -11 7 -40 6 -64 -1 -25 4 -51
10 -58 12 -15 84 -18 93 -3 4 6 13 7 23 2 9 -5 74 -8 144 -8 106 1 130 4 144
18 17 16 19 16 51 -3 32 -20 35 -20 53 -4 18 16 21 16 44 1 29 -19 94 -21 130
-5 19 9 29 8 46 -4 23 -16 84 -13 107 5 7 6 19 5 32 -1 11 -6 41 -11 66 -11
95 0 140 97 76 161 -58 57 -169 27 -184 -51 -11 -54 -32 -35 -28 26 1 11 -7
28 -19 39 -16 15 -25 16 -44 7 -20 -9 -27 -7 -42 9 -24 27 -106 26 -141 -1
-20 -15 -29 -17 -45 -9 -16 9 -24 7 -41 -10 l-21 -20 -33 20 c-27 17 -36 19
-49 8 -12 -10 -20 -9 -40 2 -20 10 -29 11 -45 0 -14 -8 -25 -9 -32 -2 -7 5
-41 8 -77 7 -44 -2 -69 1 -78 10 -23 24 -68 17 -92 -13z m89 -18 c3 -19 2 -19
-15 -4 -20 18 -44 15 -44 -5 0 -7 14 -25 30 -41 17 -16 30 -39 30 -51 0 -48
-73 -62 -77 -14 -2 14 0 19 4 10 8 -20 23 -29 40 -23 22 9 15 38 -17 68 -32
31 -38 53 -18 73 19 19 62 11 67 -13z m585 9 c23 -23 20 -40 -4 -19 -24 21
-66 23 -87 2 -18 -17 -20 -82 -4 -101 16 -19 43 -25 70 -14 19 7 22 14 19 38
-4 27 -2 30 21 30 19 0 22 -3 13 -12 -7 -7 -12 -22 -12 -35 0 -16 -8 -27 -26
-33 -39 -15 -60 -12 -90 14 -57 49 -20 146 56 146 16 0 36 -7 44 -16z m-511
-44 l-5 -35 35 38 c32 33 57 47 57 32 0 -3 -16 -20 -36 -37 l-37 -32 43 -38
c28 -25 37 -38 26 -38 -9 0 -33 17 -52 38 l-36 37 4 -37 c4 -35 2 -38 -21 -38
-19 0 -22 3 -13 12 15 15 16 110 1 125 -8 8 -4 11 14 10 23 -2 24 -5 20 -37z
m157 26 c-14 -14 -13 -109 2 -124 9 -9 4 -12 -22 -12 -26 0 -31 3 -22 12 15
15 16 110 2 124 -7 7 -1 11 20 11 21 0 27 -4 20 -11z m166 -61 c-4 22 -9 48
-12 58 -4 13 1 17 22 17 22 0 25 -3 16 -12 -7 -7 -12 -40 -12 -77 l0 -65 -60
59 -61 60 6 -45 c4 -25 8 -51 11 -57 2 -8 -7 -13 -23 -13 -21 0 -24 3 -15 12
7 7 12 40 12 77 l0 65 61 -59 61 -60 -6 40z m294 64 c0 -5 -4 -9 -10 -9 -5 0
-10 -25 -10 -55 0 -54 0 -55 30 -55 17 0 30 5 30 10 0 6 5 10 10 10 7 0 7 -6
0 -20 -8 -15 -21 -20 -53 -20 l-42 0 0 73 c0 68 1 72 23 73 12 1 22 -2 22 -7z
m205 -14 c14 -13 25 -36 25 -50 0 -33 -41 -75 -73 -75 -40 0 -77 36 -77 75 0
24 7 39 26 54 35 28 69 26 99 -4z m-335 -23 c0 -10 -7 -27 -15 -38 -13 -16
-16 -17 -25 -4 -11 17 -13 44 -3 53 14 14 43 7 43 -11z"/>
<path d="M1382 1518 c-17 -17 -15 -73 3 -88 22 -18 66 -15 82 6 18 24 16 59
-3 78 -18 19 -65 21 -82 4z m56 -46 c2 -15 -2 -22 -12 -22 -11 0 -16 9 -16 26
0 31 23 28 28 -4z"/>
<path d="M2119 1569 c-17 -17 -25 -19 -51 -10 -39 14 -103 14 -128 1 -13 -7
-21 -7 -25 0 -8 13 -92 13 -100 1 -8 -14 31 -23 65 -16 22 5 30 3 30 -7 0 -10
-9 -13 -30 -10 -27 4 -30 2 -30 -23 0 -24 3 -27 25 -23 16 3 25 1 25 -7 0 -8
-9 -10 -25 -7 -22 4 -25 1 -25 -22 0 -20 5 -26 23 -26 13 0 29 6 36 13 11 10
13 9 7 -6 -3 -10 -6 -21 -6 -23 0 -2 -23 -4 -52 -4 -40 0 -49 3 -40 12 7 7 12
35 12 64 0 47 -3 54 -34 78 -43 32 -59 33 -84 1 l-19 -24 -23 24 c-28 29 -55
32 -69 7 -5 -10 -14 -49 -19 -86 -7 -54 -6 -71 5 -82 17 -16 32 -18 52 -5 9 6
22 6 33 0 12 -6 25 -6 37 1 14 7 22 7 27 -1 4 -7 21 -9 43 -5 20 3 42 2 49 -3
7 -4 36 -4 63 1 31 6 55 6 62 0 7 -6 36 -6 72 0 71 10 79 10 126 2 20 -3 46
-1 57 5 14 7 23 8 27 1 11 -18 53 -11 70 13 l16 22 19 -25 c18 -23 20 -24 55
-11 27 9 40 10 48 2 16 -16 43 -14 61 4 13 13 13 20 1 54 -34 98 -65 126 -106
97 -20 -13 -24 -13 -50 6 -23 17 -37 20 -78 15 -37 -4 -53 -2 -61 9 -18 21
-67 17 -91 -7z m-462 -59 c14 -33 29 -60 33 -60 4 0 19 28 35 63 l28 62 11
-75 c6 -41 15 -81 19 -87 6 -9 1 -13 -15 -13 -21 0 -23 4 -19 46 2 25 -2 51
-8 57 -8 8 -11 8 -11 0 0 -6 -9 -32 -21 -58 l-21 -47 -28 59 -28 58 -2 -45
c-1 -25 -2 -51 -1 -57 1 -7 -8 -13 -20 -13 -16 0 -19 3 -11 13 6 6 14 45 17
85 4 39 9 72 12 72 2 0 15 -27 30 -60z m543 38 c0 -21 -1 -21 -13 -3 -8 10
-19 15 -25 11 -21 -13 -13 -41 19 -69 33 -29 36 -62 8 -80 -24 -15 -69 0 -69
23 0 11 5 20 10 20 6 0 10 -6 10 -14 0 -16 19 -25 38 -18 21 7 13 37 -18 67
-44 42 -36 85 17 85 17 0 23 -6 23 -22z m-130 -23 c20 -18 27 -69 12 -91 -14
-21 -51 -34 -98 -34 -40 0 -45 2 -34 15 8 10 11 36 8 73 l-4 57 48 -1 c31 0
55 -7 68 -19z m271 -1 c20 -24 -4 -64 -38 -63 -26 0 -26 1 -7 9 12 5 25 13 28
18 11 18 -6 42 -30 42 -20 0 -24 -5 -24 -33 0 -17 4 -47 9 -65 9 -30 8 -32
-17 -32 -20 0 -23 3 -14 12 14 14 16 118 2 118 -5 0 -10 3 -10 8 0 13 89 1
101 -14z m121 -51 c33 -71 34 -73 13 -73 -16 0 -21 6 -21 23 1 18 -4 22 -29
22 -23 0 -31 -5 -33 -22 -2 -14 -10 -23 -21 -23 -14 0 -11 11 19 74 19 41 36
73 36 72 1 0 17 -34 36 -73z"/>
<path d="M1980 1475 l0 -55 33 0 c41 0 57 15 57 55 0 40 -16 55 -57 55 l-33 0
0 -55z"/>
<path d="M2412 1485 c-10 -22 -9 -25 8 -25 21 0 26 16 12 38 -6 9 -12 6 -20
-13z"/>
<path d="M557 1302 c-20 -22 -22 -65 -4 -80 9 -7 202 -15 352 -13 11 0 55 1
97 2 42 0 82 -2 88 -6 16 -10 60 22 60 44 0 10 -8 29 -19 42 -18 22 -22 23
-182 20 -228 -4 -307 -4 -344 3 -23 5 -36 1 -48 -12z m47 -11 c3 -5 -4 -11
-15 -14 -24 -7 -20 -33 5 -31 9 1 16 -3 16 -8 0 -17 -45 -3 -48 15 -6 30 28
61 42 38z m236 -28 c0 -35 -1 -36 -19 -19 -18 17 -19 17 -24 -1 -3 -10 -5 -3
-6 16 -1 33 -1 34 19 16 19 -18 20 -17 20 3 0 12 2 22 5 22 3 0 5 -16 5 -37z
m74 28 c3 -5 -4 -11 -15 -14 -22 -6 -22 -28 1 -35 7 -3 10 0 6 7 -4 6 -2 11 3
11 6 0 11 -7 11 -16 0 -22 -44 -14 -48 9 -6 30 28 61 42 38z m187 -13 c-24 -8
-24 -29 -1 -36 7 -3 10 0 6 7 -4 6 -1 11 8 11 10 0 13 -6 9 -16 -8 -21 -47
-14 -51 10 -5 22 25 49 41 39 6 -3 0 -10 -12 -15z m-447 0 c5 -10 7 -10 12 0
10 22 24 12 24 -18 0 -16 -4 -30 -10 -30 -5 0 -10 7 -10 15 0 8 -4 15 -10 15
-5 0 -10 -7 -10 -15 0 -8 -4 -15 -10 -15 -5 0 -10 14 -10 30 0 30 14 40 24 18z
m101 -18 c14 -27 5 -44 -10 -20 -5 8 -11 7 -21 -1 -8 -6 -14 -9 -14 -6 0 8 23
57 26 57 2 0 10 -13 19 -30z m275 13 c0 10 4 17 8 17 5 0 9 -13 9 -30 0 -34
-8 -38 -28 -14 -12 14 -14 14 -20 -3 -6 -13 -8 -9 -8 16 -1 33 -1 34 19 16 18
-16 20 -16 20 -2z"/>
<path d="M1179 1302 c-16 -11 -19 -21 -14 -41 12 -47 18 -49 161 -49 152 0
158 3 124 62 -22 36 -22 36 -93 37 -40 1 -91 2 -115 3 -24 1 -52 -4 -63 -12z
m113 -24 c-9 -9 -9 -15 0 -25 6 -7 8 -17 4 -20 -4 -4 -11 -1 -16 7 -7 10 -10
11 -10 3 0 -7 -4 -13 -10 -13 -5 0 -10 14 -10 31 0 23 4 30 15 26 8 -4 17 -2
21 4 3 6 9 8 12 4 3 -3 0 -11 -6 -17z m128 -15 c0 -35 0 -36 -20 -18 -18 16
-20 16 -20 2 0 -10 -4 -17 -9 -17 -5 0 -9 14 -9 30 1 35 5 36 30 13 17 -15 18
-15 18 5 0 12 2 22 5 22 3 0 5 -16 5 -37z m-204 18 c-18 -7 -18 -8 -3 -14 24
-9 21 -37 -3 -37 -11 0 -20 5 -20 11 0 5 5 7 10 4 6 -3 10 -1 10 4 0 6 -4 11
-10 11 -5 0 -10 7 -10 15 0 9 9 15 23 14 20 0 20 -1 3 -8z m124 -21 c0 -16 -4
-30 -10 -30 -5 0 -10 14 -10 30 0 17 5 30 10 30 6 0 10 -13 10 -30z"/>
<path d="M1522 1304 c-25 -17 -30 -65 -9 -82 7 -6 76 -11 167 -12 85 0 164 -1
175 -1 11 0 54 0 95 2 41 1 83 -2 93 -6 12 -5 28 -1 46 13 22 16 31 18 40 9 7
-7 49 -13 104 -14 51 -1 115 -3 144 -4 60 -2 83 11 83 49 0 51 -20 59 -132 55
-55 -2 -110 -9 -120 -14 -14 -7 -23 -7 -34 2 -11 9 -18 8 -34 -6 -11 -10 -20
-25 -20 -34 -1 -9 -8 -3 -17 14 -8 17 -17 32 -19 34 -2 2 -79 3 -172 2 -221
-4 -331 -3 -351 4 -9 3 -27 -2 -39 -11z m30 -25 c-14 -6 -20 -14 -16 -24 4 -9
13 -14 20 -11 8 3 14 1 14 -5 0 -19 -45 -5 -48 15 -5 22 25 49 41 39 6 -3 1
-10 -11 -14z m322 12 c3 -5 -4 -11 -15 -14 -22 -6 -22 -28 1 -35 7 -3 10 0 6
7 -4 6 -2 11 3 11 6 0 11 -7 11 -16 0 -22 -44 -14 -48 9 -6 30 28 61 42 38z
m187 -13 c-24 -8 -24 -29 -1 -36 7 -3 10 0 6 7 -4 6 0 11 9 11 9 0 15 -6 13
-12 -7 -21 -52 -16 -56 6 -5 22 25 49 41 39 6 -3 0 -10 -12 -15z m109 -13 c0
-14 7 -25 18 -28 10 -3 6 -5 -10 -6 -26 -1 -28 2 -28 35 0 21 4 33 10 29 6 -3
10 -17 10 -30z m127 -6 l-14 -34 -17 33 c-9 18 -12 32 -6 32 6 0 13 -7 17 -17
5 -14 8 -13 15 7 5 13 11 21 14 18 3 -3 -1 -21 -9 -39z m67 20 c-10 -4 -13 -8
-6 -8 6 -1 12 -6 12 -12 0 -5 -4 -7 -10 -4 -5 3 -10 2 -10 -4 0 -5 8 -12 18
-14 10 -3 6 -5 -10 -6 -25 -1 -28 3 -28 28 0 20 6 31 18 34 25 5 39 -5 16 -14z
m66 1 c-9 -5 -9 -9 -1 -14 18 -12 12 -36 -9 -36 -11 0 -20 5 -20 11 0 5 5 7
10 4 6 -3 10 -1 10 4 0 6 -4 11 -10 11 -14 0 -12 27 3 33 17 6 31 -4 17 -13z
m-816 -2 c5 -10 7 -10 12 0 10 22 24 12 24 -18 0 -16 -4 -30 -10 -30 -5 0 -10
7 -10 15 0 8 -4 15 -10 15 -5 0 -10 -7 -10 -15 0 -8 -4 -15 -9 -15 -5 0 -9 14
-9 30 1 31 12 40 22 18z m103 -18 c11 -28 2 -42 -12 -20 -5 8 -11 7 -21 -1
-17 -14 -18 -8 -2 26 15 32 21 32 35 -5z m73 13 c0 10 3 17 8 17 4 0 7 -13 7
-30 0 -34 -6 -37 -26 -14 -12 14 -14 14 -20 -3 -6 -13 -8 -9 -8 16 -1 33 -1
34 19 16 18 -16 20 -16 20 -2z m220 -13 c0 -28 -13 -40 -24 -22 -7 12 5 52 15
52 5 0 9 -13 9 -30z"/>
</g>
</svg>
